<svg height="512pt" viewBox="0 -61 512 512" width="512pt" xmlns="http://www.w3.org/2000/svg"><path d="m497 300h-15v-255c0-24.8125-20.1875-45-45-45h-362c-24.8125 0-45 20.1875-45 45v255h-15c-8.285156 0-15 6.714844-15 15 0 41.355469 33.644531 75 75 75h362c41.355469 0 75-33.644531 75-75 0-8.285156-6.714844-15-15-15zm-437-255c0-8.269531 6.730469-15 15-15h362c8.269531 0 15 6.730469 15 15v255h-392zm377 315h-362c-19.558594 0-36.238281-12.550781-42.429688-30.011719h446.859376c-6.191407 17.460938-22.871094 30.011719-42.429688 30.011719zm0 0"/><path d="m175.605469 94.394531c-5.855469-5.859375-15.355469-5.859375-21.210938 0l-60 60c-5.859375 5.859375-5.859375 15.355469 0 21.210938l60 60c5.855469 5.859375 15.351563 5.859375 21.210938 0 5.859375-5.855469 5.859375-15.351563 0-21.210938l-49.390625-49.394531 49.390625-49.394531c5.859375-5.855469 5.859375-15.355469 0-21.210938zm0 0"/><path d="m357.605469 94.394531c-5.855469-5.859375-15.355469-5.859375-21.210938 0-5.859375 5.859375-5.859375 15.355469 0 21.210938l49.390625 49.394531-49.390625 49.394531c-5.859375 5.859375-5.859375 15.355469 0 21.210938 5.855469 5.859375 15.351563 5.859375 21.210938 0l60-60c5.859375-5.855469 5.859375-15.351563 0-21.210938zm0 0"/><path d="m290.742188 60.769531c-7.855469-2.617187-16.351563 1.628907-18.972657 9.488281l-60 180c-2.621093 7.859376 1.628907 16.351563 9.488281 18.972657 7.855469 2.621093 16.351563-1.628907 18.972657-9.488281l60-180c2.621093-7.859376-1.628907-16.351563-9.488281-18.972657zm0 0"/></svg>