<?xml version="1.0" encoding="iso-8859-1"?>
<!-- Generator: Adobe Illustrator 18.0.0, SVG Export Plug-In . SVG Version: 6.00 Build 0)  -->
<!DOCTYPE svg PUBLIC "-//W3C//DTD SVG 1.1//EN" "http://www.w3.org/Graphics/SVG/1.1/DTD/svg11.dtd">
<svg version="1.1" id="Capa_1" xmlns="http://www.w3.org/2000/svg" xmlns:xlink="http://www.w3.org/1999/xlink" x="0px" y="0px"
	 viewBox="0 0 363.605 363.605" style="enable-background:new 0 0 363.605 363.605;" xml:space="preserve">
<g>
	<g>
		<path d="M192.486,63.958c-5.348,0-8.67,4.827-8.67,12.603c0.071,7.678,3.246,12.448,8.285,12.448c5.51,0,8.67-4.655,8.67-12.771
			C200.771,68.549,197.674,63.958,192.486,63.958z M192.275,85.126c-2.391,0-3.875-3.271-3.875-8.537
			c0-5.313,1.535-8.747,3.912-8.747c3.37,0,3.873,5.349,3.873,8.537C196.186,79.646,195.678,85.126,192.275,85.126z"/>
	</g>
	<g>
		<path d="M204.798,70.288c0.057,0.225,0.214,0.41,0.426,0.503c0.212,0.093,0.454,0.083,0.658-0.026l2.925-1.579v18.687
			c0,0.414,0.336,0.75,0.75,0.75h2.98c0.414,0,0.75-0.336,0.75-0.75V65.094c0-0.414-0.336-0.75-0.75-0.75h-2.631
			c-0.123,0-0.245,0.03-0.354,0.089l-4.975,2.662c-0.304,0.163-0.458,0.511-0.374,0.845L204.798,70.288z"/>
	</g>
	<g>
		<path d="M226.994,89.009c5.511,0,8.672-4.655,8.672-12.771c0-7.689-3.098-12.28-8.285-12.28c-5.348,0-8.67,4.827-8.67,12.603
			C218.78,84.24,221.954,89.009,226.994,89.009z M227.205,67.842c3.373,0,3.877,5.349,3.877,8.537c0,3.267-0.508,8.747-3.912,8.747
			c-2.392,0-3.877-3.271-3.877-8.537C223.293,71.276,224.828,67.842,227.205,67.842z"/>
	</g>
	<g>
		<path d="M247.43,63.958c-5.348,0-8.67,4.827-8.67,12.603c0.071,7.678,3.246,12.448,8.285,12.448c5.511,0,8.672-4.655,8.672-12.771
			C255.717,68.549,252.619,63.958,247.43,63.958z M247.221,85.126c-2.392,0-3.877-3.271-3.877-8.537
			c0-5.313,1.535-8.747,3.912-8.747c3.371,0,3.875,5.349,3.875,8.537C251.131,79.646,250.623,85.126,247.221,85.126z"/>
	</g>
	<g>
		<path d="M259.741,70.288c0.057,0.225,0.214,0.41,0.426,0.503c0.211,0.093,0.454,0.083,0.658-0.026l2.927-1.579v18.687
			c0,0.414,0.336,0.75,0.75,0.75h2.979c0.414,0,0.75-0.336,0.75-0.75V65.094c0-0.414-0.336-0.75-0.75-0.75h-2.629
			c-0.123,0-0.245,0.03-0.354,0.089l-4.975,2.662c-0.304,0.162-0.458,0.511-0.374,0.844L259.741,70.288z"/>
	</g>
	<g>
		<path d="M283.392,63.958c-5.348,0-8.67,4.827-8.67,12.603c0.071,7.678,3.246,12.448,8.285,12.448c5.51,0,8.67-4.655,8.67-12.771
			C291.678,68.549,288.58,63.958,283.392,63.958z M283.182,85.126c-2.391,0-3.875-3.271-3.875-8.537
			c0-5.313,1.535-8.747,3.912-8.747c3.371,0,3.875,5.349,3.875,8.537C287.094,79.646,286.586,85.126,283.182,85.126z"/>
	</g>
	<g>
		<path d="M295.706,70.288c0.057,0.225,0.214,0.41,0.426,0.503c0.213,0.093,0.454,0.083,0.658-0.026l2.925-1.579v18.688
			c0,0.414,0.336,0.75,0.75,0.75h2.978c0.414,0,0.75-0.336,0.75-0.75V65.094c0-0.414-0.336-0.75-0.75-0.75h-2.629
			c-0.123,0-0.245,0.03-0.353,0.089l-4.975,2.662c-0.304,0.163-0.458,0.511-0.374,0.845L295.706,70.288z"/>
	</g>
	<g>
		<path d="M318.971,89.009c5.511,0,8.672-4.655,8.672-12.771c0-7.689-3.098-12.28-8.285-12.28c-5.349,0-8.672,4.827-8.672,12.603
			C310.757,84.24,313.932,89.009,318.971,89.009z M319.182,67.842c3.371,0,3.875,5.349,3.875,8.537c0,3.267-0.508,8.747-3.91,8.747
			c-2.392,0-3.877-3.271-3.877-8.537C315.27,71.276,316.805,67.842,319.182,67.842z"/>
	</g>
	<g>
		<path d="M331.667,70.288c0.057,0.225,0.214,0.41,0.426,0.503c0.213,0.093,0.454,0.083,0.658-0.026l2.925-1.579v18.687
			c0,0.414,0.336,0.75,0.75,0.75h2.979c0.414,0,0.75-0.336,0.75-0.75V65.094c0-0.414-0.336-0.75-0.75-0.75h-2.627
			c-0.123,0-0.245,0.03-0.354,0.089l-4.977,2.662c-0.304,0.162-0.458,0.511-0.374,0.845L331.667,70.288z"/>
	</g>
	<g>
		<path d="M355.32,63.958c-5.349,0-8.672,4.827-8.672,12.603c0.071,7.678,3.246,12.448,8.285,12.448
			c5.511,0,8.672-4.655,8.672-12.771C363.605,68.549,360.508,63.958,355.32,63.958z M355.107,85.126
			c-2.389,0-3.873-3.271-3.873-8.537c0-5.313,1.535-8.747,3.91-8.747c3.373,0,3.877,5.349,3.877,8.537
			C359.022,79.646,358.513,85.126,355.107,85.126z"/>
	</g>
	<g>
		<path d="M191.574,130.686h2.98c0.414,0,0.75-0.336,0.75-0.75v-22.779c0-0.414-0.336-0.75-0.75-0.75h-2.629
			c-0.123,0-0.245,0.03-0.354,0.089l-4.977,2.662c-0.305,0.163-0.458,0.511-0.373,0.846l0.596,2.349
			c0.057,0.224,0.214,0.409,0.425,0.502c0.213,0.093,0.454,0.083,0.658-0.026l2.923-1.578v18.686
			C190.824,130.351,191.16,130.686,191.574,130.686z"/>
	</g>
	<g>
		<path d="M210.082,131.072c5.511,0,8.672-4.654,8.672-12.77c0-7.689-3.098-12.28-8.285-12.28c-5.349,0-8.672,4.826-8.672,12.602
			C201.868,126.303,205.043,131.072,210.082,131.072z M210.293,109.905c3.371,0,3.875,5.349,3.875,8.537
			c0,3.267-0.508,8.747-3.91,8.747c-2.392,0-3.877-3.271-3.877-8.538C206.381,113.338,207.916,109.905,210.293,109.905z"/>
	</g>
	<g>
		<path d="M223.862,112.829l2.927-1.58v18.687c0,0.414,0.336,0.75,0.75,0.75h2.979c0.414,0,0.75-0.336,0.75-0.75v-22.779
			c0-0.414-0.336-0.75-0.75-0.75h-2.629c-0.123,0-0.245,0.03-0.354,0.089l-4.977,2.662c-0.304,0.162-0.458,0.511-0.374,0.845
			l0.594,2.349c0.057,0.225,0.214,0.41,0.426,0.503C223.417,112.948,223.658,112.938,223.862,112.829z"/>
	</g>
	<g>
		<path d="M246.045,131.072c5.511,0,8.672-4.654,8.672-12.77c0-7.689-3.098-12.28-8.287-12.28c-5.348,0-8.67,4.826-8.67,12.602
			C237.831,126.303,241.006,131.072,246.045,131.072z M246.256,109.905c3.371,0,3.875,5.349,3.875,8.537
			c0,3.267-0.508,8.747-3.91,8.747c-2.392,0-3.877-3.271-3.877-8.538C242.344,113.338,243.879,109.905,246.256,109.905z"/>
	</g>
	<g>
		<path d="M258.741,112.352c0.057,0.225,0.214,0.41,0.426,0.503c0.211,0.093,0.454,0.083,0.658-0.026l2.927-1.579v18.686
			c0,0.414,0.336,0.75,0.75,0.75h2.979c0.414,0,0.75-0.336,0.75-0.75v-22.779c0-0.414-0.336-0.75-0.75-0.75h-2.629
			c-0.123,0-0.245,0.03-0.354,0.089l-4.975,2.662c-0.304,0.162-0.458,0.511-0.374,0.844L258.741,112.352z"/>
	</g>
	<g>
		<path d="M282.392,106.022c-5.348,0-8.67,4.826-8.67,12.602c0.071,7.678,3.246,12.448,8.285,12.448c5.51,0,8.67-4.654,8.67-12.77
			C290.678,110.613,287.58,106.022,282.392,106.022z M282.182,127.189c-2.391,0-3.875-3.271-3.875-8.538
			c0-5.313,1.535-8.747,3.912-8.747c3.371,0,3.875,5.349,3.875,8.537C286.094,121.709,285.586,127.189,282.182,127.189z"/>
	</g>
	<g>
		<path d="M300.99,131.072c5.51,0,8.67-4.654,8.67-12.77c0-7.689-3.098-12.28-8.285-12.28c-5.348,0-8.67,4.826-8.67,12.602
			C292.774,126.303,295.949,131.072,300.99,131.072z M301.199,109.905c3.371,0,3.875,5.349,3.875,8.537
			c0,3.267-0.508,8.747-3.91,8.747c-2.391,0-3.875-3.271-3.875-8.538C297.289,113.338,298.824,109.905,301.199,109.905z"/>
	</g>
	<g>
		<path d="M318.445,130.686h2.978c0.414,0,0.75-0.336,0.75-0.75v-22.779c0-0.414-0.336-0.75-0.75-0.75h-2.627
			c-0.123,0-0.245,0.03-0.354,0.089l-4.977,2.662c-0.304,0.162-0.458,0.511-0.374,0.845l0.594,2.349
			c0.057,0.225,0.214,0.41,0.426,0.503c0.213,0.093,0.454,0.083,0.658-0.026l2.925-1.579v18.686
			C317.695,130.351,318.031,130.686,318.445,130.686z"/>
	</g>
	<g>
		<path d="M337.338,106.022c-5.349,0-8.672,4.826-8.672,12.602c0.071,7.678,3.246,12.448,8.285,12.448
			c5.511,0,8.672-4.654,8.672-12.77C345.623,110.613,342.525,106.022,337.338,106.022z M337.127,127.189
			c-2.391,0-3.875-3.271-3.875-8.538c0-5.313,1.535-8.747,3.91-8.747c3.371,0,3.875,5.349,3.875,8.537
			C341.037,121.709,340.529,127.189,337.127,127.189z"/>
	</g>
	<g>
		<path d="M192.486,148.085c-5.348,0-8.67,4.826-8.67,12.602c0.071,7.678,3.246,12.448,8.285,12.448c5.51,0,8.67-4.654,8.67-12.769
			C200.771,152.676,197.674,148.085,192.486,148.085z M192.275,169.253c-2.391,0-3.875-3.271-3.875-8.537
			c0-5.314,1.535-8.748,3.912-8.748c3.37,0,3.873,5.349,3.873,8.537C196.186,163.772,195.678,169.253,192.275,169.253z"/>
	</g>
	<g>
		<path d="M211.469,148.085c-5.349,0-8.672,4.826-8.672,12.602c0.071,7.678,3.246,12.448,8.285,12.448
			c5.511,0,8.672-4.654,8.672-12.769C219.754,152.676,216.656,148.085,211.469,148.085z M211.258,169.253
			c-2.392,0-3.877-3.271-3.877-8.537c0-5.314,1.535-8.748,3.912-8.748c3.371,0,3.875,5.349,3.875,8.537
			C215.168,163.772,214.66,169.253,211.258,169.253z"/>
	</g>
	<g>
		<path d="M228.539,172.75h2.979c0.414,0,0.75-0.336,0.75-0.75v-22.779c0-0.414-0.336-0.75-0.75-0.75h-2.629
			c-0.123,0-0.245,0.03-0.354,0.089l-4.977,2.663c-0.304,0.163-0.458,0.511-0.374,0.845l0.594,2.348
			c0.057,0.224,0.214,0.41,0.426,0.502c0.212,0.093,0.454,0.083,0.658-0.026l2.927-1.579V172
			C227.789,172.414,228.125,172.75,228.539,172.75z"/>
	</g>
	<g>
		<path d="M247.43,148.085c-5.348,0-8.67,4.826-8.67,12.602c0.071,7.678,3.246,12.448,8.285,12.448
			c5.511,0,8.672-4.654,8.672-12.769C255.717,152.676,252.619,148.085,247.43,148.085z M247.221,169.253
			c-2.392,0-3.877-3.271-3.877-8.537c0-5.314,1.535-8.748,3.912-8.748c3.371,0,3.875,5.349,3.875,8.537
			C251.131,163.772,250.623,169.253,247.221,169.253z"/>
	</g>
	<g>
		<path d="M266.027,173.135c5.51,0,8.67-4.654,8.67-12.769c0-7.69-3.098-12.281-8.285-12.281c-5.348,0-8.67,4.826-8.67,12.602
			C257.813,168.366,260.988,173.135,266.027,173.135z M266.238,151.968c3.371,0,3.875,5.349,3.875,8.537
			c0,3.267-0.508,8.748-3.912,8.748c-2.391,0-3.875-3.271-3.875-8.537C262.326,155.401,263.861,151.968,266.238,151.968z"/>
	</g>
	<g>
		<path d="M286.461,148.471h-2.629c-0.123,0-0.245,0.03-0.354,0.089l-4.975,2.663c-0.304,0.163-0.458,0.511-0.374,0.844l0.592,2.348
			c0.057,0.225,0.214,0.41,0.426,0.503c0.211,0.093,0.454,0.083,0.657-0.026l2.928-1.578V172c0,0.414,0.336,0.75,0.75,0.75h2.979
			c0.414,0,0.75-0.336,0.75-0.75v-22.779C287.211,148.807,286.875,148.471,286.461,148.471z"/>
	</g>
	<g>
		<path d="M302.375,148.085c-5.348,0-8.67,4.826-8.67,12.602c0.069,7.678,3.244,12.448,8.285,12.448c5.51,0,8.67-4.654,8.67-12.769
			C310.66,152.676,307.563,148.085,302.375,148.085z M302.164,169.253c-2.391,0-3.875-3.271-3.875-8.537
			c0-5.314,1.535-8.748,3.91-8.748c3.371,0,3.875,5.349,3.875,8.537C306.074,163.772,305.566,169.253,302.164,169.253z"/>
	</g>
	<g>
		<path d="M192.486,190.148c-5.348,0-8.67,4.826-8.67,12.602c0.071,7.678,3.246,12.447,8.285,12.447c5.51,0,8.67-4.654,8.67-12.77
			C200.771,194.739,197.674,190.148,192.486,190.148z M192.275,211.316c-2.391,0-3.875-3.271-3.875-8.537
			c0-5.314,1.535-8.748,3.912-8.748c3.37,0,3.873,5.349,3.873,8.538C196.186,205.835,195.678,211.316,192.275,211.316z"/>
	</g>
	<g>
		<path d="M211.082,215.198c5.511,0,8.672-4.654,8.672-12.77c0-7.689-3.098-12.28-8.285-12.28c-5.349,0-8.672,4.826-8.672,12.602
			C202.868,210.429,206.043,215.198,211.082,215.198z M211.293,194.031c3.371,0,3.875,5.349,3.875,8.538
			c0,3.267-0.508,8.747-3.91,8.747c-2.392,0-3.877-3.271-3.877-8.537C207.381,197.465,208.916,194.031,211.293,194.031z"/>
	</g>
	<g>
		<path d="M224.204,196.982c0.212,0.094,0.454,0.083,0.658-0.026l2.927-1.58v18.688c0,0.414,0.336,0.75,0.75,0.75h2.979
			c0.414,0,0.75-0.336,0.75-0.75v-22.779c0-0.414-0.336-0.75-0.75-0.75h-2.629c-0.123,0-0.245,0.03-0.354,0.089l-4.977,2.663
			c-0.304,0.163-0.458,0.511-0.374,0.845l0.594,2.348C223.835,196.704,223.992,196.889,224.204,196.982z"/>
	</g>
	<g>
		<path d="M245.77,214.063c0,0.414,0.336,0.75,0.75,0.75h2.979c0.414,0,0.75-0.336,0.75-0.75v-22.779c0-0.414-0.336-0.75-0.75-0.75
			h-2.627c-0.123,0-0.245,0.03-0.354,0.089l-4.977,2.663c-0.304,0.163-0.458,0.511-0.374,0.845l0.594,2.348
			c0.057,0.224,0.214,0.41,0.426,0.502c0.212,0.094,0.454,0.083,0.658-0.026l2.925-1.579V214.063z"/>
	</g>
	<g>
		<path d="M265.027,215.198c5.51,0,8.67-4.654,8.67-12.77c0-7.689-3.098-12.28-8.285-12.28c-5.348,0-8.67,4.826-8.67,12.602
			C256.813,210.429,259.988,215.198,265.027,215.198z M265.238,194.031c3.371,0,3.875,5.349,3.875,8.538
			c0,3.267-0.508,8.747-3.912,8.747c-2.391,0-3.875-3.271-3.875-8.537C261.326,197.465,262.861,194.031,265.238,194.031z"/>
	</g>
	<g>
		<path d="M285.461,190.534h-2.629c-0.123,0-0.245,0.03-0.354,0.089l-4.975,2.663c-0.304,0.163-0.458,0.511-0.374,0.844l0.592,2.348
			c0.057,0.225,0.214,0.41,0.426,0.503c0.211,0.094,0.454,0.083,0.658-0.026l2.927-1.579v18.686c0,0.414,0.336,0.75,0.75,0.75h2.979
			c0.414,0,0.75-0.336,0.75-0.75v-22.779C286.211,190.87,285.875,190.534,285.461,190.534z"/>
	</g>
	<g>
		<path d="M301.375,190.148c-5.348,0-8.67,4.826-8.67,12.602c0.069,7.678,3.244,12.447,8.285,12.447c5.51,0,8.67-4.654,8.67-12.77
			C309.66,194.739,306.563,190.148,301.375,190.148z M301.164,211.316c-2.391,0-3.875-3.271-3.875-8.537
			c0-5.314,1.535-8.748,3.91-8.748c3.371,0,3.875,5.349,3.875,8.538C305.074,205.835,304.566,211.316,301.164,211.316z"/>
	</g>
	<g>
		<path d="M320.357,190.148c-5.349,0-8.672,4.826-8.672,12.602c0.071,7.678,3.246,12.447,8.285,12.447
			c5.511,0,8.672-4.654,8.672-12.77C328.642,194.739,325.545,190.148,320.357,190.148z M320.147,211.316
			c-2.392,0-3.877-3.271-3.877-8.537c0-5.314,1.535-8.748,3.912-8.748c3.371,0,3.875,5.349,3.875,8.538
			C324.057,205.835,323.549,211.316,320.147,211.316z"/>
	</g>
	<g>
		<path d="M340.404,190.534h-2.627c-0.123,0-0.245,0.03-0.354,0.089l-4.977,2.663c-0.304,0.163-0.458,0.511-0.374,0.845l0.594,2.348
			c0.057,0.224,0.214,0.41,0.426,0.502c0.213,0.094,0.454,0.083,0.658-0.026l2.925-1.579v18.686c0,0.414,0.336,0.75,0.75,0.75h2.979
			c0.414,0,0.75-0.336,0.75-0.75v-22.779C341.154,190.87,340.818,190.534,340.404,190.534z"/>
	</g>
	<g>
		<path d="M339.334,262.98H45.842V84.913h128.992v-20H36.166c-5.701,0-10.324,4.622-10.324,10.324V262.98h-7.508
			C8.209,262.98,0,271.188,0,281.314c0,10.125,8.209,18.333,18.334,18.333h321c10.125,0,18.334-8.208,18.334-18.333
			C357.668,271.188,349.459,262.98,339.334,262.98z M188.512,286.636h-19.355c-2.939,0-5.322-2.383-5.322-5.322
			c0-2.939,2.383-5.322,5.322-5.322h19.355c2.939,0,5.322,2.383,5.322,5.322C193.834,284.253,191.451,286.636,188.512,286.636z"/>
		<path d="M192.102,257.262c5.51,0,8.67-4.655,8.67-12.771c0-7.689-3.098-12.28-8.285-12.28c-5.348,0-8.67,4.826-8.67,12.603
			C183.888,252.492,187.063,257.262,192.102,257.262z M192.313,236.095c3.37,0,3.873,5.349,3.873,8.537
			c0,3.267-0.508,8.747-3.91,8.747c-2.391,0-3.875-3.271-3.875-8.537C188.4,239.528,189.936,236.095,192.313,236.095z"/>
	</g>
	<g>
		<path d="M212.469,232.211c-5.349,0-8.672,4.826-8.672,12.603c0.071,7.678,3.246,12.448,8.285,12.448
			c5.511,0,8.672-4.655,8.672-12.771C220.754,236.802,217.656,232.211,212.469,232.211z M212.258,253.379
			c-2.392,0-3.877-3.271-3.877-8.537c0-5.313,1.535-8.747,3.912-8.747c3.371,0,3.875,5.349,3.875,8.537
			C216.168,247.898,215.66,253.379,212.258,253.379z"/>
	</g>
	<g>
		<path d="M232.449,232.211c-5.348,0-8.67,4.826-8.67,12.603c0.069,7.678,3.243,12.448,8.283,12.448
			c5.511,0,8.672-4.655,8.672-12.771C240.734,236.802,237.637,232.211,232.449,232.211z M232.238,253.379
			c-2.392,0-3.877-3.271-3.877-8.537c0-5.313,1.535-8.747,3.912-8.747c3.373,0,3.877,5.349,3.877,8.537
			C236.15,247.898,235.643,253.379,232.238,253.379z"/>
	</g>
	<g>
		<path d="M252.498,232.597h-2.627c-0.123,0-0.245,0.03-0.354,0.089l-4.977,2.664c-0.304,0.163-0.458,0.511-0.374,0.845l0.594,2.348
			c0.057,0.224,0.214,0.41,0.426,0.503c0.213,0.093,0.454,0.083,0.658-0.026l2.925-1.579v18.686c0,0.414,0.336,0.75,0.75,0.75h2.979
			c0.414,0,0.75-0.336,0.75-0.75v-22.779C253.248,232.933,252.912,232.597,252.498,232.597z"/>
	</g>
	<g>
		<path d="M268.412,232.211c-5.348,0-8.67,4.826-8.67,12.603c0.071,7.678,3.246,12.448,8.285,12.448c5.51,0,8.67-4.655,8.67-12.771
			C276.697,236.802,273.6,232.211,268.412,232.211z M268.201,253.379c-2.391,0-3.875-3.271-3.875-8.537
			c0-5.313,1.535-8.747,3.912-8.747c3.371,0,3.875,5.349,3.875,8.537C272.113,247.898,271.605,253.379,268.201,253.379z"/>
	</g>
</g>
<g>
</g>
<g>
</g>
<g>
</g>
<g>
</g>
<g>
</g>
<g>
</g>
<g>
</g>
<g>
</g>
<g>
</g>
<g>
</g>
<g>
</g>
<g>
</g>
<g>
</g>
<g>
</g>
<g>
</g>
</svg>
